<svg width="64" height="64" viewBox="0 0 64 64" fill="none" xmlns="http://www.w3.org/2000/svg">
<path fill-rule="evenodd" clip-rule="evenodd" d="M34 54V42H42L32 30L22 42H30V54H19C14.7493 53.8747 11.218 52.406 8.406 49.594C5.594 46.782 4.12533 43.2507 4 39C4.084 35.0827 5.36533 31.76 7.844 29.032C10.3227 26.304 13.4787 24.6893 17.312 24.188C18.0627 20.5627 19.7813 17.646 22.468 15.438C25.1547 13.23 28.332 12.084 32 12C35.6667 12.084 38.844 13.23 41.532 15.438C44.22 17.646 45.9387 20.5627 46.688 24.188C50.5213 24.688 53.6773 26.3027 56.156 29.032C58.6347 31.7613 59.916 35.084 60 39C59.8747 43.2507 58.406 46.782 55.594 49.594C52.782 52.406 49.2507 53.8747 45 54H34Z" fill="#A8ABB2"/>
</svg>